<?xml version="1.0" encoding="UTF-8" standalone="no"?>
<svg
   width="24"
   height="24"
   viewBox="0 0 24 24"
   version="1.1"
   id="svg1"
   sodipodi:docname="add_subtask_white.svg"
   inkscape:version="1.4.2 (ebf0e940d0, 2025-05-08)"
   xmlns:inkscape="http://www.inkscape.org/namespaces/inkscape"
   xmlns:sodipodi="http://sodipodi.sourceforge.net/DTD/sodipodi-0.dtd"
   xmlns="http://www.w3.org/2000/svg"
   xmlns:svg="http://www.w3.org/2000/svg">
  <defs
     id="defs1" />
  <sodipodi:namedview
     id="namedview1"
     pagecolor="#000000"
     bordercolor="#000000"
     borderopacity="0.25"
     inkscape:showpageshadow="2"
     inkscape:pageopacity="0.0"
     inkscape:pagecheckerboard="true"
     inkscape:deskcolor="#d1d1d1"
     inkscape:zoom="16.645833"
     inkscape:cx="1.6220275"
     inkscape:cy="13.967459"
     inkscape:window-width="1920"
     inkscape:window-height="1008"
     inkscape:window-x="0"
     inkscape:window-y="0"
     inkscape:window-maximized="1"
     inkscape:current-layer="svg1" />
  <path
     fill="fefffeff"
     d="m 2.7266653,17.454969 a 1.3636054,1.3636054 0 1 0 -2.726119925,0 1.3636054,1.3636054 0 0 0 2.726119925,0 M 10.930115,16.636806 H 5.1822459 l -0.1112702,0.0076 a 0.81816322,0.81816322 0 0 0 0.1112702,1.62869 H 11.251926 A 7.0907479,7.0907479 0 0 1 10.930115,16.63677 m 1.952683,-5.454421 H 5.1822459 A 0.81816322,0.81816322 0 0 1 5.0709757,9.5536939 l 0.1112702,-0.0076 H 15.26638 a 7.0907479,7.0907479 0 0 0 -2.382491,1.6363271 m -10.1561328,-0.8182 a 1.3636054,1.3636054 0 1 0 -2.72611993,0 1.3636054,1.3636054 0 0 0 2.72611993,0 m 0,-7.0907477 a 1.3636054,1.3636054 0 1 0 -2.727210825,0 1.3636054,1.3636054 0 0 0 2.726119925,0 M 21.000068,2.45531 H 5.1822459 L 5.0709757,2.46295 A 0.81816322,0.81816322 0 0 0 5.1822459,4.0916365 H 21.000068 l 0.11127,-0.00764 A 0.81816322,0.81816322 0 0 0 21.000068,2.45531 M 24,16.091364 a 5.9998636,5.9998636 0 1 0 -11.999727,0 5.9998636,5.9998636 0 0 0 11.999727,0 m -5.454421,0.545442 0.0011,2.730483 a 0.54544215,0.54544215 0 1 1 -1.090884,0 V 16.636806 H 14.72312 a 0.54544215,0.54544215 0 0 1 0,-1.090884 h 2.731574 V 12.81762 a 0.5454425,0.5454425 0 1 1 1.090885,0 v 2.727211 h 2.723938 a 0.54544215,0.54544215 0 0 1 0,1.090884 z"
     id="path1"
     style="fill:#fefffe;fill-opacity:1;stroke-width:1.09088" />
</svg>
