<?xml version="1.0" encoding="UTF-8" standalone="no"?>
<!-- Created with Inkscape (http://www.inkscape.org/) -->

<svg
   width="48"
   height="48"
   viewBox="0 0 12.7 12.7"
   version="1.1"
   id="svg1"
   inkscape:version="1.4.2 (ebf0e940d0, 2025-05-08)"
   sodipodi:docname="reset_proxy_black.svg"
   xmlns:inkscape="http://www.inkscape.org/namespaces/inkscape"
   xmlns:sodipodi="http://sodipodi.sourceforge.net/DTD/sodipodi-0.dtd"
   xmlns="http://www.w3.org/2000/svg"
   xmlns:svg="http://www.w3.org/2000/svg">
  <sodipodi:namedview
     id="namedview1"
     pagecolor="#ffffff"
     bordercolor="#000000"
     borderopacity="0.25"
     inkscape:showpageshadow="2"
     inkscape:pageopacity="0.0"
     inkscape:pagecheckerboard="true"
     inkscape:deskcolor="#d1d1d1"
     inkscape:document-units="mm"
     inkscape:zoom="8.0630807"
     inkscape:cx="3.7206623"
     inkscape:cy="25.548547"
     inkscape:window-width="1920"
     inkscape:window-height="1008"
     inkscape:window-x="0"
     inkscape:window-y="0"
     inkscape:window-maximized="1"
     inkscape:current-layer="layer1" />
  <defs
     id="defs1" />
  <g
     inkscape:label="Layer 1"
     inkscape:groupmode="layer"
     id="layer1">
    <g
       id="g10"
       inkscape:label="broken lan"
       transform="matrix(1.0907522,0,0,1.0907522,16.617314,0.47911254)"
       style="fill:#000000">
      <path
         style="baseline-shift:baseline;display:inline;overflow:visible;opacity:1;vector-effect:none;fill:#000000;stroke-linecap:round;stroke-linejoin:round;enable-background:accumulate;stop-color:#000000;stop-opacity:1"
         d="m -6.8539052,1.5315971 a 0.493085,0.493085 0 0 0 -0.4921875,0.4941407 v 0.4921875 a 0.493085,0.493085 0 0 0 0.4921875,0.4941406 0.493085,0.493085 0 0 0 0.4941406,-0.4941406 V 2.0257378 A 0.493085,0.493085 0 0 0 -6.8539052,1.5315971 Z"
         id="path10" />
      <path
         style="baseline-shift:baseline;display:inline;overflow:visible;opacity:1;vector-effect:none;fill:#000000;stroke-linecap:round;stroke-linejoin:round;enable-background:accumulate;stop-color:#000000;stop-opacity:1"
         d="M -8.8246083,1.5315971 A 0.493085,0.493085 0 0 0 -9.318749,2.0257378 v 0.4921875 a 0.493085,0.493085 0 0 0 0.4941407,0.4941406 0.493085,0.493085 0 0 0 0.4921875,-0.4941406 V 2.0257378 A 0.493085,0.493085 0 0 0 -8.8246083,1.5315971 Z"
         id="path9" />
      <path
         style="baseline-shift:baseline;display:inline;overflow:visible;opacity:1;vector-effect:none;fill:#000000;stroke-linecap:round;stroke-linejoin:round;enable-background:accumulate;stop-color:#000000;stop-opacity:1"
         d="m -10.797265,1.5315971 a 0.493085,0.493085 0 0 0 -0.49414,0.4941407 v 0.4921875 a 0.493085,0.493085 0 0 0 0.49414,0.4941406 0.493085,0.493085 0 0 0 0.492188,-0.4941406 V 2.0257378 a 0.493085,0.493085 0 0 0 -0.492188,-0.4941407 z"
         id="path8" />
      <path
         style="baseline-shift:baseline;display:inline;overflow:visible;opacity:1;vector-effect:none;fill:#000000;stroke-linecap:round;stroke-linejoin:round;enable-background:accumulate;stop-color:#000000;stop-opacity:1"
         d="m -12.769921,1.5315971 a 0.493085,0.493085 0 0 0 -0.49414,0.4941407 v 0.4921875 a 0.493085,0.493085 0 0 0 0.49414,0.4941406 0.493085,0.493085 0 0 0 0.492188,-0.4941406 V 2.0257378 a 0.493085,0.493085 0 0 0 -0.492188,-0.4941407 z"
         id="path7" />
      <path
         id="path5"
         style="baseline-shift:baseline;display:inline;overflow:visible;opacity:1;vector-effect:none;fill:#000000;stroke-linecap:round;stroke-linejoin:round;enable-background:accumulate;stop-color:#000000;stop-opacity:1"
         inkscape:label="border"
         d="M -13.756097 -0.43924967 C -14.567229 -0.43924974 -15.234729 0.22825037 -15.234729 1.0393826 L -15.234729 5.4767009 C -15.234729 6.2878332 -14.567229 6.9558071 -13.756097 6.955807 L -12.974852 6.955807 L -11.639298 8.2913611 A 0.49313431 0.49313431 0 0 0 -11.291078 8.4358606 L -8.4697848 8.4358606 C -8.3850354 8.4019929 -8.2930673 8.3832723 -8.1992628 8.3832723 C -8.1721348 8.3832723 -8.1455928 8.3848526 -8.1196697 8.38801 A 0.49313431 0.49313431 0 0 0 -8.0775043 8.3652691 L -8.260379 8.3652691 C -8.6254009 8.365119 -8.956669 8.0338508 -8.9568191 7.668829 L -8.9568191 7.449474 L -11.085936 7.449474 L -12.422438 6.1139199 A 0.49313431 0.49313431 0 0 0 -12.76971 5.9713155 L -13.756097 5.9713155 C -14.034263 5.9713156 -14.250238 5.7548673 -14.250238 5.4767009 L -14.250238 1.0393826 C -14.250238 0.76121631 -14.034263 0.54524183 -13.756097 0.54524183 L -5.867373 0.54524183 C -5.5892065 0.54524173 -5.3732322 0.76121621 -5.3732322 1.0393826 L -5.3732322 5.4767009 C -5.3732322 5.6523904 -5.4595292 5.8033321 -5.5930609 5.8907748 C -5.2503472 5.9584891 -4.9199131 6.0888325 -4.6251513 6.2759488 C -4.4749886 6.0448402 -4.3873194 5.7701597 -4.3873194 5.4767009 L -4.3873194 1.0393826 C -4.3873194 0.22825017 -5.0562401 -0.43925001 -5.867373 -0.43924967 L -13.756097 -0.43924967 z M -7.0371081 6.0068482 A 0.49313431 0.49313431 0 0 0 -7.0508474 6.0125334 C -7.0462413 6.0107283 -7.0417222 6.0086291 -7.0371081 6.0068482 z " />
    </g>
    <path
       fill="currentColor"
       d="m 7.1437502,7.4510408 a 0.46308108,0.46308108 0 0 1 0.9261617,0 v 0.398865 A 2.7784865,2.7784865 0 1 1 7.1931456,10.446866 c -0.054334,-0.28711 0.1883198,-0.5260606 0.4803694,-0.5260606 0.2191915,0 0.3926929,0.1796666 0.4390009,0.3939276 A 1.8529417,1.8529417 0 1 0 8.8941968,8.3802898 h 0.256856 a 0.46308108,0.46308108 0 0 1 0,0.9261616 H 7.6074488 A 0.46308108,0.46308108 0 0 1 7.1443677,8.8433694 Z"
       id="path1-6"
       style="display:inline;fill:#000000;fill-opacity:1;stroke-width:0.617441" />
  </g>
</svg>
