<?xml version="1.0" encoding="UTF-8" standalone="no"?>
<svg
   width="48"
   height="48"
   fill="none"
   viewBox="0 0 48 48"
   version="1.1"
   id="svg1"
   sodipodi:docname="setup_again_black.svg"
   inkscape:version="1.4.2 (ebf0e940d0, 2025-05-08)"
   xmlns:inkscape="http://www.inkscape.org/namespaces/inkscape"
   xmlns:sodipodi="http://sodipodi.sourceforge.net/DTD/sodipodi-0.dtd"
   xmlns="http://www.w3.org/2000/svg"
   xmlns:svg="http://www.w3.org/2000/svg">
  <defs
     id="defs1" />
  <sodipodi:namedview
     id="namedview1"
     pagecolor="#ffffff"
     bordercolor="#000000"
     borderopacity="0.25"
     inkscape:showpageshadow="2"
     inkscape:pageopacity="0.0"
     inkscape:pagecheckerboard="true"
     inkscape:deskcolor="#d1d1d1"
     showguides="true"
     inkscape:zoom="5.656854"
     inkscape:cx="-11.844039"
     inkscape:cy="52.856234"
     inkscape:window-width="1920"
     inkscape:window-height="1008"
     inkscape:window-x="0"
     inkscape:window-y="0"
     inkscape:window-maximized="1"
     inkscape:current-layer="svg1" />
  <path
     id="path1"
     style="stroke-width:2.18969;fill:#000000"
     inkscape:label="cog"
     d="M 20.523438 0 C 18.878252 0.020437067 17.270941 0.20530397 15.703125 0.55273438 A 1.6422655 1.6422655 0 0 0 14.427734 1.9746094 L 14.054688 5.3164062 A 3.0370963 3.0370963 0 0 1 9.828125 7.7636719 L 6.7636719 6.4179688 A 1.6422655 1.6422655 0 0 0 4.9023438 6.7988281 A 21.458936 21.458936 0 0 0 0.07421875 15.101562 A 1.6422655 1.6422655 0 0 0 0.66992188 16.910156 L 3.390625 18.912109 A 3.0217685 3.0217685 0 0 1 3.390625 23.787109 L 0.66992188 25.792969 A 1.6422655 1.6422655 0 0 0 0.07421875 27.601562 A 21.458936 21.458936 0 0 0 4.8964844 35.912109 A 1.6422655 1.6422655 0 0 0 6.7578125 36.296875 L 9.8378906 34.947266 A 3.0261479 3.0261479 0 0 1 14.052734 37.378906 L 14.421875 40.714844 A 1.6422655 1.6422655 0 0 0 15.675781 42.130859 A 20.80203 20.80203 0 0 0 25.322266 42.130859 A 1.6422655 1.6422655 0 0 0 26.529297 40.949219 A 11.5 11.5 0 0 1 26 37.498047 A 11.5 11.5 0 0 1 27.445312 31.917969 A 6.3062995 6.3062995 0 0 0 23.685547 37.011719 L 23.443359 39.166016 C 21.496727 39.494469 19.507416 39.494469 17.558594 39.166016 L 17.320312 37.011719 A 6.3106789 6.3106789 0 0 0 8.5234375 31.9375 L 6.5410156 32.806641 C 5.2885152 31.282618 4.2905437 29.56442 3.5898438 27.720703 L 5.3398438 26.433594 A 6.3062995 6.3062995 0 0 0 5.3378906 16.267578 L 3.5917969 14.982422 A 18.174405 18.174405 0 0 1 6.5410156 9.9101562 L 8.5097656 10.773438 A 6.3194377 6.3194377 0 0 0 17.316406 5.6796875 L 17.558594 3.5410156 A 19.707186 19.707186 0 0 1 20.523438 3.2851562 L 20.525391 3.2851562 A 19.707186 19.707186 0 0 1 23.445312 3.5410156 L 23.685547 5.6777344 A 6.3150583 6.3150583 0 0 0 32.494141 10.767578 L 34.458984 9.90625 A 18.174405 18.174405 0 0 1 37.410156 14.980469 L 35.664062 16.265625 A 6.3062995 6.3062995 0 0 0 35.367188 26.199219 A 11.5 11.5 0 0 1 37.5 25.998047 A 11.5 11.5 0 0 1 40.884766 26.507812 A 1.6422655 1.6422655 0 0 0 40.330078 25.791016 L 37.609375 23.787109 A 3.0217685 3.0217685 0 0 1 37.609375 18.912109 L 40.326172 16.90625 A 1.6422655 1.6422655 0 0 0 40.921875 15.099609 A 21.458936 21.458936 0 0 0 36.09375 6.796875 A 1.6422655 1.6422655 0 0 0 34.232422 6.4160156 L 31.167969 7.7617188 A 3.0305273 3.0305273 0 0 1 26.947266 5.3183594 L 26.576172 1.9746094 A 1.6422655 1.6422655 0 0 0 25.300781 0.5546875 C 23.730776 0.2043375 22.130668 0.017517 20.523438 0 z M 20.496094 13.138672 A 8.2113276 8.2113276 0 0 0 20.496094 29.560547 A 8.2113276 8.2113276 0 1 0 20.496094 13.138672 z M 20.496094 16.421875 A 4.9267966 4.9267966 0 0 1 20.496094 26.275391 A 4.9267966 4.9267966 0 1 1 20.496094 16.421875 z " />
  <path
     id="path1-5"
     style="display:inline;fill:#000000;fill-opacity:1;stroke-width:5;stroke-dasharray:none"
     inkscape:label="loop"
     sodipodi:type="inkscape:offset"
     inkscape:radius="0.094261102"
     inkscape:original="M 64.789062 24.691406 C 62.543045 24.748268 60.333199 25.54095 58.515625 26.873047 C 58.510132 26.877283 58.51231 26.876354 58.505859 26.878906 C 58.499409 26.881458 58.501045 26.88019 58.494141 26.880859 C 58.487236 26.881529 58.489242 26.882125 58.482422 26.880859 C 58.475601 26.879594 58.478861 26.880055 58.472656 26.876953 C 58.466452 26.873851 58.467996 26.875791 58.462891 26.871094 C 58.457786 26.866397 58.458685 26.867253 58.455078 26.861328 C 58.451471 26.855403 58.453 26.858254 58.451172 26.851562 C 58.449343 26.844871 58.449126 26.84678 58.449219 26.839844 L 58.449219 26.601562 C 58.449219 25.906658 57.810141 25.267579 57.115234 25.267578 C 56.420329 25.267578 55.78125 25.906658 55.78125 26.601562 L 55.78125 30.101562 C 55.78125 30.832451 56.384349 31.435548 57.115234 31.435547 L 60.615234 31.435547 C 61.310141 31.435547 61.949219 30.796469 61.949219 30.101562 C 61.949219 29.406658 61.310141 28.767579 60.615234 28.767578 L 60.503906 28.767578 C 60.494207 28.774297 60.484674 28.780873 60.474609 28.787109 C 60.466699 28.792011 60.460467 28.79686 60.457031 28.798828 L 60.455078 28.798828 C 60.454103 28.799543 60.450125 28.802272 60.449219 28.802734 C 60.448258 28.803226 60.443743 28.804529 60.443359 28.804688 A 0.021787445 0.021787445 0 0 1 60.435547 28.806641 C 60.433681 28.806848 60.432135 28.806642 60.431641 28.806641 L 60.429688 28.806641 L 60.427734 28.806641 L 60.425781 28.806641 A 0.021787445 0.021787445 0 0 1 60.40625 28.787109 A 0.021787445 0.021787445 0 0 1 60.388672 28.755859 L 60.390625 28.751953 C 60.390625 28.751953 60.392578 28.751953 60.392578 28.751953 C 60.392578 28.751953 60.392578 28.75 60.392578 28.75 A 0.021787445 0.021787445 0 0 1 60.394531 28.744141 A 0.021787445 0.021787445 0 0 1 60.398438 28.736328 L 60.414062 28.751953 L 60.402344 28.734375 L 60.404297 28.732422 C 60.40557 28.730921 60.408442 28.729122 60.412109 28.726562 C 60.421078 28.7203 60.429281 28.716916 60.441406 28.708984 C 60.468366 28.69135 60.511696 28.664108 60.580078 28.621094 C 60.606844 28.604258 60.618012 28.59785 60.636719 28.585938 A 0.021787445 0.021787445 0 0 1 60.636719 28.583984 L 60.636719 28.574219 C 60.634478 28.575248 60.639479 28.571893 60.646484 28.568359 C 60.658339 28.562379 60.67558 28.554732 60.697266 28.542969 C 60.699968 28.541503 60.711416 28.535398 60.71875 28.53125 L 60.720703 28.529297 C 60.741329 28.516091 60.775594 28.495119 60.789062 28.486328 C 60.810357 28.472431 60.82628 28.461778 60.835938 28.455078 C 60.84169 28.451087 60.845852 28.447152 60.845703 28.447266 A 0.021787445 0.021787445 0 0 1 60.869141 28.445312 C 60.882114 28.438109 60.892804 28.431941 60.914062 28.419922 C 60.941963 28.404148 60.95125 28.397693 60.970703 28.386719 C 60.970703 28.386719 60.972656 28.386719 60.972656 28.386719 L 60.972656 28.378906 C 60.97445 28.377645 60.976234 28.374944 60.980469 28.373047 C 60.99165 28.368038 61.008599 28.360563 61.03125 28.349609 C 61.04187 28.344472 61.068282 28.33095 61.082031 28.324219 C 61.09405 28.317243 61.119456 28.302434 61.128906 28.296875 C 61.150357 28.284258 61.164889 28.276371 61.175781 28.269531 C 61.178619 28.267749 61.181487 28.267063 61.183594 28.265625 C 61.184911 28.264726 61.186558 28.262372 61.1875 28.261719 A 0.021787445 0.021787445 0 0 1 61.199219 28.257812 L 61.183594 28.265625 C 61.183594 28.265625 61.189116 28.268051 61.191406 28.269531 C 61.214713 28.257975 61.226044 28.25334 61.255859 28.238281 C 61.283135 28.224506 61.293924 28.218341 61.3125 28.208984 C 61.3125 28.208984 61.314453 28.208984 61.314453 28.208984 L 61.314453 28.199219 L 61.314453 28.197266 L 61.316406 28.197266 C 61.318534 28.196077 61.322096 28.194965 61.326172 28.193359 C 61.336721 28.189204 61.353397 28.181942 61.376953 28.171875 C 61.390691 28.166004 61.424365 28.150846 61.443359 28.142578 C 61.451141 28.138519 61.469548 28.128698 61.476562 28.125 C 61.498612 28.113377 61.514312 28.103921 61.525391 28.097656 C 61.532336 28.093727 61.537007 28.092586 61.535156 28.09375 A 0.021787445 0.021787445 0 0 1 61.556641 28.091797 C 61.570274 28.086338 61.581973 28.081906 61.603516 28.072266 C 61.634044 28.058604 61.644652 28.053546 61.667969 28.042969 L 61.667969 28.035156 C 61.670291 28.03357 61.671771 28.030655 61.675781 28.029297 C 61.68841 28.02502 61.705423 28.022267 61.728516 28.013672 C 61.732963 28.012017 61.749676 28.003911 61.759766 28 C 61.779998 27.990722 61.816897 27.974917 61.830078 27.96875 C 61.853531 27.957778 61.871271 27.950135 61.880859 27.945312 C 61.886614 27.942418 61.891584 27.94001 61.892578 27.939453 A 0.021787445 0.021787445 0 0 1 61.916016 27.941406 C 61.928768 27.936471 61.939639 27.932184 61.960938 27.923828 C 61.98686 27.913658 61.998985 27.908828 62.015625 27.902344 L 62.011719 27.894531 L 62.013672 27.892578 A 0.021787445 0.021787445 0 0 1 62.023438 27.886719 C 62.022435 27.886961 62.027901 27.884912 62.035156 27.882812 C 62.047849 27.879139 62.066327 27.874724 62.089844 27.867188 C 62.098358 27.864458 62.121915 27.857743 62.134766 27.853516 L 62.136719 27.851562 C 62.15298 27.845006 62.182534 27.834547 62.193359 27.830078 C 62.216888 27.820367 62.231586 27.813344 62.242188 27.808594 C 62.24558 27.807074 62.247513 27.80768 62.25 27.806641 C 62.25 27.806641 62.254335 27.809419 62.255859 27.810547 C 62.280602 27.802339 62.292284 27.799892 62.324219 27.789062 C 62.355513 27.778449 62.367237 27.773743 62.390625 27.765625 L 62.392578 27.757812 C 62.392578 27.757812 62.394531 27.757812 62.394531 27.757812 C 62.39665 27.756988 62.39818 27.754896 62.402344 27.753906 C 62.413736 27.751198 62.430479 27.746849 62.455078 27.740234 C 62.466039 27.737286 62.498451 27.726085 62.517578 27.720703 C 62.529857 27.716373 62.554198 27.709305 62.560547 27.707031 C 62.584112 27.698591 62.599529 27.694064 62.611328 27.689453 C 62.617949 27.686866 62.624446 27.684947 62.623047 27.685547 L 62.615234 27.691406 C 62.615234 27.691406 62.621498 27.69344 62.625 27.695312 A 0.021787445 0.021787445 0 0 1 62.623047 27.691406 C 62.651305 27.683378 62.661664 27.681553 62.695312 27.671875 C 62.724867 27.663375 62.73692 27.658536 62.757812 27.652344 L 62.759766 27.644531 C 62.763914 27.643944 62.768627 27.643486 62.773438 27.642578 C 62.784607 27.64047 62.803133 27.636339 62.828125 27.630859 C 62.837102 27.62889 62.859722 27.623627 62.871094 27.621094 C 62.888311 27.615952 62.922478 27.605564 62.935547 27.601562 C 62.960426 27.593945 62.976378 27.589301 62.986328 27.585938 C 62.989706 27.584795 62.993695 27.584489 63 27.582031 A 0.021787445 0.021787445 0 0 1 63.021484 27.585938 C 63.035448 27.582634 63.047228 27.579701 63.070312 27.574219 C 63.10281 27.566502 63.113684 27.562685 63.138672 27.556641 L 63.140625 27.550781 C 63.139494 27.550909 63.141983 27.549737 63.148438 27.548828 C 63.159199 27.547315 63.179655 27.5434 63.205078 27.539062 C 63.214719 27.537417 63.241275 27.531907 63.255859 27.529297 C 63.271091 27.525504 63.301743 27.518375 63.3125 27.515625 C 63.337329 27.509279 63.354341 27.505076 63.365234 27.501953 C 63.371391 27.500187 63.376071 27.498344 63.376953 27.498047 A 0.021787445 0.021787445 0 0 1 63.392578 27.503906 C 63.409604 27.500801 63.422355 27.499202 63.449219 27.494141 C 63.473422 27.48958 63.485266 27.487173 63.5 27.484375 A 0.021787445 0.021787445 0 0 1 63.515625 27.472656 C 63.513288 27.472767 63.521362 27.471446 63.529297 27.470703 C 63.541334 27.469576 63.558944 27.467921 63.583984 27.464844 C 63.596965 27.463249 63.629237 27.459243 63.646484 27.457031 C 63.657948 27.454728 63.683518 27.449297 63.693359 27.447266 C 63.71831 27.442115 63.734897 27.438205 63.746094 27.435547 C 63.750777 27.434435 63.755739 27.432797 63.759766 27.431641 A 0.021787445 0.021787445 0 0 1 63.777344 27.439453 C 63.792865 27.43747 63.805272 27.43512 63.830078 27.431641 C 63.853456 27.428362 63.865093 27.427527 63.878906 27.425781 A 0.021787445 0.021787445 0 0 1 63.880859 27.425781 A 0.021787445 0.021787445 0 0 1 63.898438 27.412109 C 63.902812 27.412102 63.905324 27.412335 63.910156 27.412109 C 63.921634 27.411573 63.941349 27.410126 63.966797 27.408203 C 63.981543 27.407088 64.018227 27.404067 64.039062 27.402344 C 64.04783 27.400997 64.068484 27.397699 64.076172 27.396484 C 64.100968 27.392566 64.118691 27.38901 64.130859 27.386719 C 64.138562 27.385269 64.144557 27.384297 64.142578 27.384766 A 0.021787445 0.021787445 0 0 1 64.15625 27.390625 C 64.174436 27.389229 64.187349 27.389268 64.214844 27.386719 C 64.24616 27.383816 64.258306 27.381242 64.28125 27.378906 A 0.021787445 0.021787445 0 0 1 64.283203 27.376953 L 64.285156 27.371094 C 64.286939 27.371154 64.291416 27.371096 64.296875 27.371094 C 64.307557 27.371089 64.327606 27.369886 64.353516 27.369141 C 64.369206 27.368689 64.410695 27.366192 64.435547 27.365234 C 64.444094 27.364319 64.459971 27.363603 64.462891 27.363281 C 64.487602 27.360551 64.50487 27.357258 64.517578 27.355469 C 64.523182 27.35468 64.526348 27.354073 64.529297 27.353516 A 0.021787445 0.021787445 0 0 1 64.546875 27.361328 C 64.563395 27.360461 64.574873 27.360591 64.601562 27.359375 C 64.628454 27.35815 64.641045 27.356411 64.658203 27.355469 A 0.021787445 0.021787445 0 0 1 64.673828 27.347656 C 64.671601 27.347444 64.67953 27.347268 64.6875 27.347656 C 64.699683 27.348248 64.715006 27.349132 64.740234 27.349609 C 64.751026 27.349813 64.781751 27.349447 64.798828 27.349609 C 64.81288 27.348809 64.840754 27.348209 64.849609 27.347656 C 64.873993 27.346135 64.892444 27.343051 64.90625 27.341797 C 64.910899 27.341375 64.915416 27.341667 64.917969 27.341797 L 64.919922 27.341797 A 0.021787445 0.021787445 0 0 1 64.9375 27.351562 C 64.952727 27.351556 64.965215 27.351528 64.990234 27.351562 C 65.129062 27.351599 66.108978 27.426242 66.246094 27.447266 C 66.38346 27.46833 67.336573 27.690949 67.46875 27.732422 C 67.600697 27.773824 68.513645 28.135954 68.638672 28.197266 C 68.763628 28.258542 69.609048 28.758856 69.722656 28.837891 C 69.836317 28.916962 70.598408 29.535102 70.699219 29.630859 C 70.799919 29.726516 71.458035 30.454837 71.542969 30.564453 C 71.627924 30.674099 72.168883 31.493894 72.236328 31.615234 C 72.303811 31.736642 72.711525 32.627848 72.759766 32.757812 C 72.807973 32.887684 73.08128 33.830672 73.109375 33.966797 C 73.137479 34.102962 73.260429 35.074579 73.267578 35.212891 C 73.274729 35.351238 73.252194 36.334324 73.238281 36.472656 C 73.224372 36.610952 73.052137 37.576787 73.017578 37.710938 C 72.983 37.845166 72.665952 38.774579 72.611328 38.902344 C 72.5567 39.030114 72.102405 39.899899 72.029297 40.017578 C 71.956038 40.135496 71.377284 40.925871 71.287109 41.03125 C 71.196974 41.136586 70.50369 41.833157 70.398438 41.923828 C 70.293373 42.014337 69.504434 42.596249 69.386719 42.669922 C 69.268836 42.7437 68.398618 43.199053 68.271484 43.253906 C 68.144371 43.308751 67.218562 43.630871 67.083984 43.666016 C 66.949434 43.701154 65.98151 43.874354 65.84375 43.888672 C 65.705883 43.903 64.726593 43.930537 64.587891 43.923828 C 64.449517 43.917135 63.476078 43.797178 63.339844 43.769531 C 63.203642 43.741889 62.258975 43.471618 62.128906 43.423828 C 61.998823 43.376032 61.106047 42.971399 60.984375 42.904297 C 60.862855 42.837277 60.041592 42.299453 59.931641 42.214844 C 59.821508 42.130092 59.09188 41.473219 58.996094 41.373047 C 58.90041 41.272983 58.277066 40.514293 58.197266 40.400391 C 58.117545 40.286603 57.616152 39.440703 57.554688 39.316406 C 57.493063 39.191789 57.127825 38.282356 57.085938 38.150391 C 57.043999 38.018267 56.818385 37.064973 56.796875 36.927734 C 56.775387 36.790628 56.697763 35.810649 56.697266 35.671875 C 56.696772 35.533909 56.766287 34.567972 56.787109 34.423828 L 56.787109 34.421875 C 56.787109 34.379434 56.784973 34.460356 56.787109 34.417969 A 0.021787445 0.021787445 0 0 1 56.787109 34.416016 C 56.903024 33.630597 56.320739 32.855525 55.496094 32.851562 C 54.869834 32.842689 54.267576 33.341552 54.162109 33.958984 A 0.021787445 0.021787445 0 0 1 54.162109 33.960938 C 54.161496 33.963309 54.160729 33.966374 54.160156 33.96875 C 53.825014 36.132234 54.15778 38.393709 55.101562 40.369141 C 56.045623 42.345151 57.597756 44.02441 59.492188 45.123047 C 61.386627 46.221688 63.6149 46.736206 65.798828 46.574219 C 67.982765 46.412233 70.11456 45.575083 71.826172 44.208984 C 73.537792 42.84288 74.824595 40.953035 75.466797 38.859375 C 76.109001 36.765711 76.104356 34.475631 75.453125 32.384766 C 74.801894 30.2939 73.506563 28.409487 71.789062 27.050781 C 70.071579 25.692087 67.936584 24.865453 65.751953 24.712891 C 65.430697 24.690429 65.109914 24.683284 64.789062 24.691406 z M 64.908203 27.347656 C 64.908203 27.347656 64.926286 27.374708 64.929688 27.380859 A 0.021787445 0.021787445 0 0 1 64.931641 27.375 L 64.908203 27.347656 z M 62.246094 27.814453 C 62.246094 27.814453 62.275663 27.834665 62.279297 27.837891 A 0.021787445 0.021787445 0 0 1 62.28125 27.833984 L 62.246094 27.814453 z M 61.884766 27.949219 C 61.884766 27.949219 61.914294 27.96949 61.917969 27.972656 A 0.021787445 0.021787445 0 0 1 61.919922 27.96875 L 61.919922 27.966797 L 61.890625 27.951172 L 61.884766 27.949219 z "
     d="m 64.787109,24.597656 c -2.232928,0.05653 -4.427309,0.835407 -6.24414,2.142578 v -0.138672 c 0,-0.752696 -0.675036,-1.427733 -1.427735,-1.427734 -0.752697,0 -1.427734,0.675038 -1.427734,1.427734 v 3.5 c 0,0.782743 0.644996,1.427736 1.427734,1.427735 h 3.5 c 0.752699,0 1.427735,-0.675035 1.427735,-1.427735 0,-0.735451 -0.64526,-1.391935 -1.376953,-1.421875 0.0064,-0.0039 0.0138,-0.0088 0.02148,-0.01367 a 0.09427053,0.09427053 0 0 0 0.0098,-0.01758 c 0.0097,-0.0047 0.02356,-0.01185 0.04492,-0.02344 0.001,-5.56e-4 0.01401,-0.0064 0.02344,-0.01172 a 0.09427053,0.09427053 0 0 0 0.0059,-0.0039 c 0.01887,-0.01208 0.05107,-0.03364 0.06836,-0.04492 0.02175,-0.01419 0.0397,-0.02357 0.05078,-0.03125 0.0028,-0.0019 0.0037,-0.0042 0.0059,-0.0059 a 0.09427053,0.09427053 0 0 0 0.01758,0 c 0.01373,-0.0076 0.02586,-0.01351 0.04687,-0.02539 0.02969,-0.01679 0.03978,-0.02369 0.05664,-0.0332 l -0.04492,0.01172 a 0.09427053,0.09427053 0 0 0 0.08594,-0.08594 l -0.03125,0.05859 v 0.002 c 1.25e-4,-8.8e-5 0.0027,-9.59e-4 0.0039,-0.002 0.0032,-0.0026 0.0068,-0.0068 0.0078,-0.0078 0,0 0,0.002 0,0.002 -0.0013,0.0011 -0.0051,0.0039 -0.0078,0.0059 0.01092,-0.0049 0.0223,-0.01048 0.04102,-0.01953 0.01384,-0.0067 0.03899,-0.01962 0.05078,-0.02539 a 0.09427053,0.09427053 0 0 0 0.0059,-0.002 c 0.01223,-0.0071 0.03684,-0.02144 0.04687,-0.02734 0.01721,-0.01012 0.03022,-0.01769 0.04297,-0.02539 a 0.09427053,0.09427053 0 0 0 0.002,0 0.09427053,0.09427053 0 0 0 0.01172,0 c 0.0214,-0.01061 0.03496,-0.01537 0.06641,-0.03125 0.02845,-0.01437 0.03983,-0.02083 0.05664,-0.0293 l -0.04102,0.0098 a 0.09427053,0.09427053 0 0 0 0.01563,-0.01563 0.09427053,0.09427053 0 0 0 0.0332,-0.0078 c 0.01346,-0.0054 0.02855,-0.01198 0.05078,-0.02148 0.01647,-0.007 0.04869,-0.02158 0.06641,-0.0293 a 0.09427053,0.09427053 0 0 0 0.0059,-0.002 c 0.009,-0.0047 0.02886,-0.01426 0.03516,-0.01758 0.02075,-0.01094 0.03313,-0.01971 0.04297,-0.02539 -0.0014,4.88e-4 -0.0062,0.002 -0.0059,0.002 3.05e-4,-7.9e-5 -0.02163,0.002 -0.02148,0.002 0,0 -0.002,0 -0.002,0 0,0 -0.002,0 -0.002,0 0,0 -0.0078,0 -0.0078,0 0,0 -0.01563,-0.0039 -0.01563,-0.0039 0,0 0.02539,-0.08984 0.02539,-0.08984 -6.6e-5,5.5e-5 -0.05067,-0.08015 -0.05078,-0.08008 l 0.105469,0.158203 c -0.02359,0.01644 8.27e-4,0.0027 -0.01563,0.0078 a 0.09427053,0.09427053 0 0 0 0.01758,0 c 0.0127,-0.0051 0.02746,-0.01105 0.05078,-0.02148 0.03101,-0.01388 0.04164,-0.01895 0.06445,-0.0293 a 0.09427053,0.09427053 0 0 0 0.0078,-0.01367 c 8.33e-4,-1.87e-4 0.0046,-0.0016 0.0059,-0.002 0.0088,-0.0021 0.01864,-0.0034 0.04102,-0.01172 0.01319,-0.0049 0.01384,-0.0052 0.01953,-0.0078 0.0057,-0.0026 0.01078,-0.0055 0.01172,-0.0059 a 0.09427053,0.09427053 0 0 0 0.0059,-0.002 c 0.01763,-0.0081 0.05196,-0.02266 0.07031,-0.03125 0.0039,-0.0018 0.0063,-0.0023 0.0098,-0.0039 a 0.09427053,0.09427053 0 0 0 0.123047,-0.04102 0.09427053,0.09427053 0 0 0 0.002,-0.002 c 6.91e-4,-2.71e-4 0.0013,2.64e-4 0.002,0 0.01777,-0.007 0.03153,-0.01236 0.04492,-0.01758 a 0.09427053,0.09427053 0 0 0 0.01953,-0.01953 c 0.0106,-0.0029 0.02626,-0.0064 0.04883,-0.01367 0.0032,-0.001 0.02774,-0.008 0.04492,-0.01367 a 0.09427053,0.09427053 0 0 0 0.0078,-0.0039 c 0.01177,-0.0047 0.03783,-0.01372 0.05664,-0.02148 0.0047,-0.0019 0.0057,-0.0022 0.0098,-0.0039 a 0.09427053,0.09427053 0 0 0 0.123047,-0.03711 0.09427053,0.09427053 0 0 0 0.002,-0.002 0.09427053,0.09427053 0 0 0 0.0039,-0.0039 c -0.01228,0.03232 -0.0063,0.01795 0,0.0039 0.02075,-0.0072 0.03705,-0.01341 0.05469,-0.01953 a 0.09427053,0.09427053 0 0 0 0.0039,-0.0039 h -0.03125 a 0.09427053,0.09427053 0 0 0 0.0293,-0.0059 c 0.0018,-4.36e-4 0.0058,-0.0015 0.0078,-0.002 a 0.09427053,0.09427053 0 0 0 0.002,0 0.09427053,0.09427053 0 0 0 0,-0.002 0.09427053,0.09427053 0 0 0 0.04883,-0.05273 l -0.01172,0.04492 c 0.0038,-0.001 0.0055,-8.07e-4 0.0098,-0.002 0.02378,-0.0064 0.04947,-0.01782 0.0625,-0.02148 a 0.09427053,0.09427053 0 0 0 0.0059,0 c 0.0058,-0.002 0.02299,-0.0085 0.04297,-0.01563 0.01997,-0.0072 0.03422,-0.01129 0.05078,-0.01758 0,0 -0.0017,-0.0066 -0.002,-0.0078 a 0.09427053,0.09427053 0 0 0 0.01563,-0.0039 l -0.0078,0.01563 c 0.02605,-0.0074 0.0367,-0.0093 0.07227,-0.01953 0.03215,-0.0092 0.04692,-0.01433 0.06445,-0.01953 a 0.09427053,0.09427053 0 0 0 0.0059,-0.0078 0.09427053,0.09427053 0 0 0 0.002,0 c 0.0143,-0.0027 0.03068,-0.0065 0.05469,-0.01172 0.01094,-0.0024 0.03275,-0.0075 0.04297,-0.0098 a 0.09427053,0.09427053 0 0 0 0.0078,-0.002 c 0.01781,-0.0053 0.05107,-0.01543 0.06445,-0.01953 0.02435,-0.0075 0.03877,-0.01091 0.05273,-0.01563 -0.0052,0.0018 0.006,-0.0016 0.0078,-0.002 a 0.09427053,0.09427053 0 0 0 0.01953,0.0039 c 0.01457,-0.0034 0.02608,-0.0063 0.04883,-0.01172 0.0347,-0.0082 0.04611,-0.0122 0.06836,-0.01758 a 0.09427053,0.09427053 0 0 0 0.0078,-0.0059 c 6.44e-4,-9.8e-5 0.0013,-0.0019 0.002,-0.002 a 0.09427053,0.09427053 0 0 0 0.0039,-0.0039 c 2.9e-5,6.3e-5 -4e-6,0.002 0,0.002 2.04e-4,-7.9e-5 -0.0025,0.0015 -0.0039,0.002 0.01486,-0.0023 0.02966,-0.0042 0.05078,-0.0078 0.01575,-0.0027 0.04126,-0.0077 0.05273,-0.0098 a 0.09427053,0.09427053 0 0 0 0.0059,-0.002 c 0.01333,-0.0033 0.04213,-0.01 0.05664,-0.01367 0.0245,-0.0063 0.04034,-0.01151 0.05469,-0.01563 0.0025,-7.22e-4 0.0021,5.8e-4 0.0039,0 a 0.09427053,0.09427053 0 0 0 0.01563,0.0039 c 0.01447,-0.0026 0.02799,-0.0044 0.05664,-0.0098 0.02463,-0.0046 0.03668,-0.0071 0.05078,-0.0098 a 0.09427053,0.09427053 0 0 0 0.01563,-0.01172 0.09427053,0.09427053 0 0 0 0.0078,-0.0098 c 1.7e-4,5.63e-4 -9.7e-5,0.0036 0,0.0039 a 0.09427053,0.09427053 0 0 0 0.04297,-0.03125 c -0.01443,0.02894 0.01094,-0.01116 -0.0098,0.01367 -0.0207,0.02483 0.01415,-0.0077 -0.01172,0.01172 -0.02587,0.0194 0.01597,-0.0051 -0.01367,0.0078 -0.01133,0.0049 -0.008,0.0022 -0.0059,0.002 0.0021,-2.83e-4 -0.0044,0.0023 -0.0059,0.002 0.01207,-0.0011 0.03231,-0.0026 0.05859,-0.0059 0.01317,-0.0016 0.04478,-0.0055 0.0625,-0.0078 a 0.09427053,0.09427053 0 0 0 0.0078,-0.002 c 0.01298,-0.0026 0.03796,-0.0079 0.04687,-0.0098 0.0261,-0.0054 0.04335,-0.009 0.05469,-0.01172 0.0024,-5.75e-4 0.0019,-0.0014 0.0039,-0.002 a 0.09427053,0.09427053 0 0 0 0.01758,0.0078 c 0.01854,-0.0024 0.03138,-0.0045 0.05469,-0.0078 0.0178,-0.0025 0.02666,-0.0044 0.03906,-0.0059 -0.07474,0.0034 0.0709,0 -0.0039,0 a 0.09427053,0.09427053 0 0 0 0.01953,-0.01367 0.09427053,0.09427053 0 0 0 0.07031,-0.04492 c -0.01148,0.0293 0.0091,-0.0096 -0.0098,0.01563 -0.01883,0.02521 0.01117,-0.0056 -0.01367,0.01367 -0.02484,0.01932 0.01345,-0.0023 -0.01563,0.0098 -0.02374,0.0098 -0.008,0.0061 -0.01563,0.0059 0.01435,-6.7e-4 0.035,-0.002 0.06055,-0.0039 0.01579,-0.0012 0.05139,-0.0041 0.07227,-0.0059 a 0.09427053,0.09427053 0 0 0 0.0059,0 c 0.0096,-0.0015 0.03164,-0.0047 0.03906,-0.0059 0.02576,-0.0041 0.04341,-0.0096 0.05469,-0.01172 0,0 -0.0059,0 -0.0059,0 0,0 -3e-6,-0.0019 0,-0.002 a 0.09427053,0.09427053 0 0 0 0.0059,0.002 0.09427053,0.09427053 0 0 0 0.002,0 0.09427053,0.09427053 0 0 0 0.01563,0.0059 c 0.01466,-0.0011 0.02831,-0.0011 0.05859,-0.0039 0.03418,-0.0032 0.04902,-0.0058 0.06836,-0.0078 a 0.09427053,0.09427053 0 0 0 0.01563,-0.0078 c 0.0148,-3.18e-4 0.0285,-0.0014 0.04883,-0.002 0.0209,-6.02e-4 0.0614,-0.003 0.08398,-0.0039 a 0.09427053,0.09427053 0 0 0 0.0059,0 c 7.19e-4,-7.7e-5 0.0067,3.12e-4 0.01172,0 0.005,-3.11e-4 0.0032,-5.86e-4 0.01563,-0.002 0.02817,-0.0031 0.05003,-0.0066 0.05859,-0.0078 0.0019,-2.75e-4 0.0022,-0.0017 0.0039,-0.002 a 0.09427053,0.09427053 0 0 0 0.01758,0.0078 c 0.01375,-7.21e-4 0.02451,-6.67e-4 0.05273,-0.002 0.02961,-0.0013 0.04526,-0.0032 0.05859,-0.0039 a 0.09427053,0.09427053 0 0 0 0.01367,-0.0078 0.09427053,0.09427053 0 0 0 0.0078,-0.0078 c 9.6e-5,6.31e-4 0.0019,0.0036 0.002,0.0039 a 0.09427053,0.09427053 0 0 0 0.04297,-0.02148 c -0.0211,0.02533 0.01607,-0.0107 -0.0098,0.0098 -0.02584,0.02047 0.01581,-0.0069 -0.01367,0.0078 -0.02948,0.01474 0.01821,-0.0025 -0.01367,0.0059 -0.01177,0.0031 -0.0081,2.1e-5 -0.0059,0 1.3e-5,7.6e-5 -2e-6,0.002 0,0.002 0.01144,5.7e-4 0.02598,0.0015 0.05078,0.002 0.0163,3.09e-4 0.04589,-1.39e-4 0.06055,0 a 0.09427053,0.09427053 0 0 0 0.0059,0 c 0.0097,-5.5e-4 0.03388,-8.97e-4 0.05078,-0.002 0.0098,-6.1e-4 0.01158,-0.0011 0.01953,-0.002 a 0.09427053,0.09427053 0 0 0 0.09961,0.0059 c 0.0056,2e-6 0.0082,-10e-6 0.01563,0 0.105159,2.9e-5 1.138536,0.07981 1.242188,0.0957 0.103583,0.01588 1.108374,0.249681 1.208984,0.28125 0.100645,0.03158 1.062353,0.412938 1.15625,0.458984 0.09375,0.04597 0.983579,0.574426 1.070313,0.634766 0.08675,0.06035 0.89111,0.71131 0.966797,0.783203 0.07616,0.07235 0.769628,0.84077 0.833984,0.923828 0.06429,0.08297 0.634496,0.945264 0.685547,1.037109 0.05064,0.09111 0.480711,1.031537 0.517578,1.13086 0.03685,0.09928 0.32465,1.093307 0.345703,1.195312 0.02116,0.10253 0.150802,1.125069 0.15625,1.230469 0.0054,0.105163 -0.01882,1.141922 -0.0293,1.246094 -0.01053,0.104683 -0.192582,1.123033 -0.21875,1.224609 -0.02608,0.101226 -0.358895,1.080676 -0.40039,1.177734 -0.04116,0.09626 -0.520562,1.014002 -0.576172,1.103516 -0.05546,0.08927 -0.666042,0.922099 -0.734375,1.001953 -0.06836,0.07989 -0.797493,0.812407 -0.876953,0.880859 -0.07964,0.06861 -0.9129,0.682547 -1.001954,0.738282 -0.08889,0.05564 -1.004996,0.53646 -1.101562,0.578125 -0.09752,0.04208 -1.073232,0.379979 -1.173828,0.40625 -0.100887,0.02635 -1.12139,0.209772 -1.226563,0.220703 -0.10457,0.01087 -1.137303,0.04023 -1.242187,0.03516 -0.105396,-0.0051 -1.129876,-0.131533 -1.232422,-0.152344 -0.102089,-0.02072 -1.09789,-0.305284 -1.197266,-0.341797 -0.09948,-0.03655 -1.041564,-0.463348 -1.132812,-0.513671 -0.09205,-0.05076 -0.957849,-0.617643 -1.041016,-0.681641 -0.08304,-0.0639 -0.851033,-0.755903 -0.923828,-0.832031 -0.07253,-0.07585 -0.728756,-0.876813 -0.789062,-0.962891 -0.06032,-0.0861 -0.590219,-0.976276 -0.636719,-1.070312 -0.04645,-0.09393 -0.431026,-1.053907 -0.462891,-1.154297 -0.03187,-0.10042 -0.268919,-1.103437 -0.285156,-1.207032 -0.01623,-0.103533 -0.09923,-1.136973 -0.09961,-1.242187 -3.75e-4,-0.104729 0.0733,-1.119825 0.08984,-1.234375 a 0.09427053,0.09427053 0 0 0 0,-0.002 c 1.21e-4,-0.0016 -1.03e-4,-0.0041 0,-0.0059 a 0.09427053,0.09427053 0 0 0 0,-0.0059 v -0.002 c 0,-8.14e-4 10e-7,-0.0012 0,-0.002 0,0 0,-0.002 0,-0.002 -1e-5,-0.0034 7.9e-5,-0.007 0,-0.0098 0.110039,-0.83131 -0.507957,-1.64495 -1.382812,-1.650391 h -0.002 c -0.674366,-0.0085 -1.308994,0.515387 -1.425782,1.179688 -3.57e-4,0.002 -0.0016,0.0038 -0.002,0.0059 -3e-4,0.0012 2.84e-4,0.0027 0,0.0039 a 0.09427053,0.09427053 0 0 0 -0.002,0.0078 c -0.338108,2.182632 -0.0029,4.462174 0.949219,6.455078 0.952431,1.993529 2.518525,3.686583 4.429687,4.794922 1.91114,1.108326 4.158,1.626317 6.361329,1.462891 2.203315,-0.163424 4.351362,-1.006575 6.078125,-2.384766 1.726744,-1.378175 3.023984,-3.284278 3.671875,-5.396484 0.647892,-2.11221 0.643332,-4.419896 -0.01367,-6.529297 -0.657003,-2.109396 -1.962639,-4.01015 -3.695313,-5.38086 -1.732703,-1.370734 -3.885865,-2.203508 -6.089844,-2.357421 -0.324223,-0.02267 -0.646864,-0.02968 -0.970703,-0.02148 z m -0.103515,2.65625 c 0.0033,6.51e-4 0.01628,0.0033 0.01953,0.0039 0,0 -0.0028,0.01023 -0.0039,0.01367 a 0.09427053,0.09427053 0 0 0 -0.01563,-0.01758 z m -0.5625,0.03906 a 0.09427053,0.09427053 0 0 0 -0.0039,0.0039 c -2.2e-5,-7.2e-5 2e-6,-0.002 0,-0.002 -6.2e-5,1.8e-5 0.0032,-0.0018 0.0039,-0.002 z m -0.609375,0.08594 c 0.0033,0 0.01497,0 0.01758,0 0.002,6.51e-4 0.0033,0.01237 0.002,0.01758 a 0.09427053,0.09427053 0 0 0 -0.01953,-0.01758 z m 1.509765,0.01953 c -0.01294,0.07129 0.02096,-0.05897 -0.002,0.0098 -0.02291,0.06874 0.02852,-0.05503 -0.0039,0.0098 a 0.09427053,0.09427053 0 0 0 -0.002,-0.01172 0.09427053,0.09427053 0 0 0 0.0078,-0.0078 z m -0.546875,0.02344 a 0.09427053,0.09427053 0 0 0 0.05859,0.02539 c -0.0324,0.0013 0.01427,0.0061 -0.01758,0 -0.03184,-0.0061 0.014,0.0073 -0.01563,-0.0059 -0.02963,-0.01317 0.0122,0.01173 -0.01367,-0.0078 -0.02587,-0.01954 0.0091,0.01318 -0.01172,-0.01172 z m -0.123047,0.01953 c -0.04914,0.05581 0.05063,-0.04867 -0.002,0.0039 -0.05258,0.05258 0.0519,-0.04719 -0.0039,0.002 a 0.09427053,0.09427053 0 0 0 0.002,-0.0039 0.09427053,0.09427053 0 0 0 0.0039,-0.002 z m -1.220703,0.01563 c 0.0046,0 0.01758,0 0.01953,0 0,0 1.16e-4,0.0066 0,0.0078 a 0.09427053,0.09427053 0 0 0 -0.01953,-0.0078 z m 0.960938,0.002 a 0.09427053,0.09427053 0 0 0 0.03906,0.01367 0.09427053,0.09427053 0 0 0 0.0059,0.0059 c -0.03369,-0.0019 0.02113,0.0058 -0.01172,-0.002 -0.03285,-0.0077 0.01929,0.0094 -0.01172,-0.0039 -0.03101,-0.01329 0.01652,0.0126 -0.01172,-0.0059 -0.02824,-0.01846 0.01485,0.01526 -0.0098,-0.0078 z M 63.705078,27.5 a 0.09427053,0.09427053 0 0 0 0.0625,0.02539 h -0.0039 c -0.0324,0.0013 0.01427,0.0061 -0.01758,0 -0.03184,-0.0061 0.014,0.0073 -0.01563,-0.0059 -0.02963,-0.01317 0.0122,0.01173 -0.01367,-0.0078 -0.02587,-0.01954 0.0091,0.01318 -0.01172,-0.01172 z m -0.376953,0.07227 a 0.09427053,0.09427053 0 0 0 0.0625,0.01758 l -0.0098,0.002 c -0.03318,0.0011 0.01714,0.0054 -0.01563,0 -0.03276,-0.0054 0.01741,0.0078 -0.01367,-0.0039 -0.03109,-0.01166 0.01649,0.01164 -0.01172,-0.0059 -0.02821,-0.0175 0.01253,0.01291 -0.01172,-0.0098 z m -0.746094,0.02734 c 0,0 0.002,0 0.002,0 0,0 0.03906,0.08594 0.03906,0.08594 0,0 -0.04492,-0.08398 -0.04492,-0.08398 0,0 0.0039,-0.002 0.0039,-0.002 z m 0.123047,0.04492 c 0.03928,0.06209 -0.02895,-0.05985 0.0039,0.0059 0.03286,0.06571 -0.02415,-0.06086 0.002,0.0078 l -0.0098,0.01758 a 0.09427053,0.09427053 0 0 0 0.0039,-0.03125 z m 0.255859,0.01367 a 0.09427053,0.09427053 0 0 0 0.05859,0.01367 c 7.05e-4,-6.12e-4 0.0049,0.0011 -0.0059,0.002 -0.0315,0.0026 0.01157,0.0057 -0.01953,0 -0.0311,-0.0057 0.01099,0.0077 -0.01758,-0.0059 -0.02856,-0.01353 0.0085,0.01071 -0.01563,-0.0098 z m -0.328125,0.111328 a 0.09427053,0.09427053 0 0 0 0.0059,0 c 2.3e-4,0.0013 0.002,0.0078 0.002,0.0078 0,0 -0.002,0 -0.002,0 0,0 -0.0039,0.002 -0.0039,0.002 0,0 -0.0017,-0.0079 -0.002,-0.0098 z m -0.617187,0.02344 c 0,0 -1.98e-4,0.0092 0,0.01172 a 0.09427053,0.09427053 0 0 0 -0.01367,-0.0098 c -6.3e-5,1.5e-5 0.01367,-0.002 0.01367,-0.002 z m 0.0918,0.08203 0.01953,0.03906 -0.02344,0.02148 a 0.09427053,0.09427053 0 0 0 -0.002,-0.05078 0.09427053,0.09427053 0 0 0 0.0059,-0.0098 z m -0.05273,0.08984 c 7.07e-4,0.0019 0.004,0.0097 0.0039,0.0098 -5.64e-4,1.83e-4 -0.0017,-7.5e-5 -0.002,0 -0.0037,0.0025 0.0192,-0.0057 -0.0078,0.002 a 0.09427053,0.09427053 0 0 0 0.0059,-0.01172 z m -0.316406,0.115234 -0.01563,0.0293 c -0.0012,8.26e-4 -0.0025,0.0011 -0.0039,0.002 a 0.09427053,0.09427053 0 0 0 0.01953,-0.03125 z m -1.11914,0.402344 c 0,0 0.0017,0.0066 0.002,0.0078 a 0.09427053,0.09427053 0 0 0 -0.0098,-0.002 c -1.09e-4,-3.62e-4 -0.002,-0.0039 -0.002,-0.0039 0,0 0.002,0 0.002,0 0,0 0.0078,-0.002 0.0078,-0.002 z m -0.01563,0.0039 c 0,0 -2.4e-5,0.0019 0,0.002 a 0.09427053,0.09427053 0 0 0 -0.0059,0 c -1.4e-4,6.5e-5 0.0059,-0.002 0.0059,-0.002 z m 0.287109,0.04102 c 3.25e-4,-7.15e-4 0.0043,3e-6 -0.0059,0.0039 -0.02898,0.01118 0.01142,0.0033 -0.01953,0.0059 -0.03095,0.0026 0.0089,0.0043 -0.02148,-0.002 -0.03043,-0.0062 0.0079,0.0087 -0.01953,-0.0059 a 0.09427053,0.09427053 0 0 0 0.06641,-0.002 z m -0.476563,0.166015 c 0.01699,0.0016 0.01793,0.0053 0.02148,0.0078 -0.0026,0.0017 -0.0054,0.0044 -0.0078,0.0059 a 0.09427053,0.09427053 0 0 0 -0.01367,-0.01367 z m 0.0332,0.01367 a 0.09427053,0.09427053 0 0 0 -0.01367,0.0059 0.09427053,0.09427053 0 0 0 -0.002,0 0.09427053,0.09427053 0 0 0 0,-0.002 z m -0.01172,0.0059 c 0.02951,0.0029 -0.0034,-0.0068 0.02344,0.0059 0.0046,0.0022 0.002,0.0013 0.0039,0.002 0.0011,0.0021 0.0032,0.0015 0.0078,0.0098 0.0099,0.01758 0.0081,0.01688 0.0078,0.02539 a 0.09427053,0.09427053 0 0 0 -0.04297,-0.04297 z m -0.02148,0.002 h 0.0059 a 0.09427053,0.09427053 0 0 0 -0.02148,0.0078 c -3.82e-4,2.58e-4 0.0041,-0.0029 0.0059,-0.0039 a 0.09427053,0.09427053 0 0 1 0.0039,-0.002 c 3.7e-5,-1.5e-5 0.0013,2.18e-4 0.002,0 -0.0028,0.0016 0.0042,-0.002 0.0039,-0.002 z m 0.07227,0.0293 c -6.42e-4,-9.12e-4 0.0015,-0.0036 0.0078,0.0098 0.0095,0.01997 0.0046,0.01326 0.0039,0.01758 l -0.002,0.002 a 0.09427053,0.09427053 0 0 0 -0.01172,-0.01172 v 0.0059 c -0.008,0.04387 -0.0051,0.02124 -0.002,0.0059 a 0.09427053,0.09427053 0 0 0 0.002,-0.01172 0.09427053,0.09427053 0 0 0 -0.0039,-0.0039 0.09427053,0.09427053 0 0 0 0.0039,-0.0039 0.09427053,0.09427053 0 0 0 0.002,-0.0098 z m -0.0078,0.01563 c -2.1e-5,0.0021 0.0019,6.44e-4 0.002,0.0039 6.81e-4,0.02333 -3.45e-4,0.01525 -0.0078,0.0293 -2.2e-4,-7.5e-5 0.0051,-0.0045 0,0.002 l -0.03125,0.002 a 0.09427053,0.09427053 0 0 0 0.03711,-0.03711 z m 0.0039,0.01563 c 0,6.51e-4 -0.0013,0.0046 -0.002,0.0059 a 0.09427053,0.09427053 0 0 0 0.002,-0.0059 z m -0.06641,0.04687 a 0.09427053,0.09427053 0 0 0 0.04492,0.002 l -0.01172,0.02148 h -0.05664 a 0.09427053,0.09427053 0 0 0 0.02344,-0.02344 z"
     transform="matrix(0.95018308,0,0,0.95018308,-24.251128,3.6288029)" />
</svg>
