<?xml version="1.0" encoding="UTF-8" standalone="no"?>
<svg
   width="48"
   height="48"
   viewBox="0 0 48 48"
   version="1.1"
   id="svg1"
   sodipodi:docname="setup_again_black.svg"
   inkscape:version="1.4.2 (ebf0e940d0, 2025-05-08)"
   xmlns:inkscape="http://www.inkscape.org/namespaces/inkscape"
   xmlns:sodipodi="http://sodipodi.sourceforge.net/DTD/sodipodi-0.dtd"
   xmlns="http://www.w3.org/2000/svg"
   xmlns:svg="http://www.w3.org/2000/svg">
  <defs
     id="defs1" />
  <sodipodi:namedview
     id="namedview1"
     pagecolor="#ffffff"
     bordercolor="#000000"
     borderopacity="0.25"
     inkscape:showpageshadow="2"
     inkscape:pageopacity="0.0"
     inkscape:pagecheckerboard="true"
     inkscape:deskcolor="#d1d1d1"
     inkscape:zoom="4.4194174"
     inkscape:cx="-25.795255"
     inkscape:cy="67.655977"
     inkscape:window-width="1920"
     inkscape:window-height="1008"
     inkscape:window-x="0"
     inkscape:window-y="0"
     inkscape:window-maximized="1"
     inkscape:current-layer="svg1" />
  <path
     fill="#000000"
     d="m 40.864192,1.8505579 a 4.8418194,4.8418194 0 0 0 -6.846333,0 L 28.440083,7.425106 A 4.8418194,4.8418194 0 0 0 23.714467,3.6291195 H 14.030828 A 4.8418194,4.8418194 0 0 0 9.1890092,8.470939 v 8.741098 a 17.753338,17.753338 0 0 1 3.2278788,-0.597158 v -8.14394 a 1.6139398,1.6139398 0 0 1 1.61394,-1.6139398 h 9.683639 a 1.6139398,1.6139398 0 0 1 1.61394,1.6139398 v 11.297578 h -1.08134 c 1.672042,1.174948 3.131044,2.63395 4.30922,4.302764 v -1.074884 h 11.304034 a 1.6139398,1.6139398 0 0 1 1.61394,1.61394 v 9.683639 a 1.6139398,1.6139398 0 0 1 -1.61394,1.613939 h -8.140712 a 17.753338,17.753338 0 0 1 -0.597158,3.22788 h 8.73787 a 4.8418194,4.8418194 0 0 0 4.841819,-4.841819 v -9.683639 a 4.8418194,4.8418194 0 0 0 -3.631364,-4.690109 l 5.50999,-5.506763 a 4.8418194,4.8418194 0 0 0 0,-6.8495602 z M 33.656336,19.768517 h -5.100049 v -5.10005 z M 36.29997,4.1326688 a 1.6139398,1.6139398 0 0 1 2.282111,0 l 5.713347,5.7133466 a 1.6139398,1.6139398 0 0 1 0,2.2821106 l -5.713347,5.716575 a 1.6139398,1.6139398 0 0 1 -2.282111,0 l -5.713347,-5.713347 a 1.6139398,1.6139398 0 0 1 0,-2.2853386 z M 6.1806254,24.42312 a 6.4557592,6.4557592 0 0 1 -4.6158678,7.998685 l -1.49128038,0.38089 a 15.171034,15.171034 0 0 0 0.0322788,3.279526 l 1.12975778,0.267914 a 6.4557592,6.4557592 0 0 1 4.6997928,8.131029 l -0.4099407,1.362165 q 1.2524173,0.990959 2.6952795,1.672041 l 1.0490608,-1.11039 a 6.4557592,6.4557592 0 0 1 9.3931298,0.0065 l 1.087795,1.155581 q 1.420267,-0.658488 2.653317,-1.607484 l -0.503549,-1.797929 a 6.4557592,6.4557592 0 0 1 4.615868,-7.995458 l 1.484824,-0.38089 a 15.171034,15.171034 0 0 0 -0.03228,-3.282754 L 26.845509,32.23786 a 6.4557592,6.4557592 0 0 1 -4.699792,-8.134256 l 0.406712,-1.362166 A 13.879882,13.879882 0 0 0 19.85715,21.069397 l -1.049061,1.11039 a 6.4557592,6.4557592 0 0 1 -9.3931292,-0.0032 L 8.3271654,21.020935 a 13.879882,13.879882 0 0 0 -2.6500892,1.604256 z m 7.8566586,13.098735 a 3.2278796,3.2278796 0 1 1 0,-6.455759 3.2278796,3.2278796 0 0 1 0,6.455759"
     id="path1"
     style="stroke-width:3.22788;fill:#000000;fill-opacity:1" />
</svg>
