<?xml version="1.0" encoding="UTF-8" standalone="no"?>
<svg
   width="48"
   height="48"
   viewBox="0 0 24 24"
   version="1.1"
   id="svg1"
   sodipodi:docname="uninstall_white.svg"
   inkscape:version="1.4.2 (f4327f4, 2025-05-13)"
   xmlns:inkscape="http://www.inkscape.org/namespaces/inkscape"
   xmlns:sodipodi="http://sodipodi.sourceforge.net/DTD/sodipodi-0.dtd"
   xmlns="http://www.w3.org/2000/svg"
   xmlns:svg="http://www.w3.org/2000/svg">
  <defs
     id="defs1" />
  <sodipodi:namedview
     id="namedview1"
     pagecolor="#ffffff"
     bordercolor="#000000"
     borderopacity="0.25"
     inkscape:showpageshadow="2"
     inkscape:pageopacity="0.0"
     inkscape:pagecheckerboard="true"
     inkscape:deskcolor="#d1d1d1"
     inkscape:zoom="11.652531"
     inkscape:cx="11.542557"
     inkscape:cy="22.26984"
     inkscape:window-width="1920"
     inkscape:window-height="1000"
     inkscape:window-x="-9"
     inkscape:window-y="-9"
     inkscape:window-maximized="1"
     inkscape:current-layer="svg1" />
  <path
     fill="#000000"
     d="m 23.6165,8.6562718 0.106114,-0.09222 a 0.94743913,0.94743913 0 0 0 0.09095,-1.2341977 l -0.09095,-0.1061131 -2.80442,-2.8018934 2.80442,-2.8044198 a 0.94743913,0.94743913 0 0 0 0.09095,-1.23293407 l -0.09095,-0.1061132 a 0.94743913,0.94743913 0 0 0 -1.234198,-0.092217 l -0.106113,0.092217 -2.80442,2.80441977 -2.801893,-2.80441977 a 0.94743913,0.94743913 0 0 0 -1.232934,-0.092217 l -0.107377,0.092217 a 0.94743913,0.94743913 0 0 0 -0.09095,1.23293407 l 0.09095,0.1061132 2.803157,2.8044198 -2.801893,2.8018934 a 0.94743913,0.94743913 0 0 0 -0.09222,1.2341978 l 0.09095,0.106113 a 0.94743913,0.94743913 0 0 0 1.234198,0.09222 l 0.106113,-0.09222 2.80442,-2.8018936 2.80442,2.8018936 a 0.94743913,0.94743913 0 0 0 1.232934,0.09222 M 19.896217,23.999733 a 2.8423174,2.8423174 0 0 0 2.842317,-2.842317 V 14.525342 A 2.8423174,2.8423174 0 0 0 19.896223,11.683024 H 12.31671 V 4.1035111 A 2.8423174,2.8423174 0 0 0 9.4743919,1.2611937 H 2.8423183 A 2.8423174,2.8423174 0 0 0 8.9915269e-7,4.1035111 V 21.157416 A 2.8423174,2.8423174 0 0 0 2.8423183,23.999733 Z M 10.421831,11.684288 H 1.8948792 V 4.1047743 A 0.94743913,0.94743913 0 0 1 2.8423183,3.1573352 h 6.6320736 a 0.94743913,0.94743913 0 0 1 0.9474391,0.9474391 z m 9.474392,10.42183 H 12.31671 v -8.526952 h 7.579513 a 0.94743913,0.94743913 0 0 1 0.947439,0.947439 v 6.632074 a 0.94743913,0.94743913 0 0 1 -0.947439,0.947439 m -9.474392,0 H 2.8423183 A 0.94743913,0.94743913 0 0 1 1.8948792,21.158679 v -7.579513 h 8.5269518 z"
     id="path1"
     style="stroke-width:1.26325;fill:#fefffe;fill-opacity:1" />
</svg>
