<svg width="700" height="227" viewBox="0 0 700 227" fill="none" xmlns="http://www.w3.org/2000/svg">
<rect width="700" height="227" rx="32" fill="white"/>
<g clip-path="url(#clip0_8209_73428)">
<path d="M143.427 154.204H61.0057V72.7964H100.955L83.9495 56H56.1176C49.4312 56 44 61.3644 44 67.9685V159.032C44 165.648 49.4312 171 56.1176 171H148.303C155.002 171 160.421 165.636 160.421 159.032V131.542L143.415 114.746V154.204H143.427Z" fill="#1A1921"/>
<path d="M143.427 154.204H61.0057V72.7964H100.955L83.9495 56H56.1176C49.4312 56 44 61.3644 44 67.9685V159.032C44 165.648 49.4312 171 56.1176 171H148.303C155.002 171 160.421 165.636 160.421 159.032V131.542L143.415 114.746V154.204H143.427Z" fill="#1A1921"/>
<path d="M160.435 67.9685V108.761L143.441 91.977V72.7964H124.022L107.004 56H148.305C155.016 56 160.435 61.3644 160.435 67.9685Z" fill="#18A0FB"/>
<path d="M199.297 78.9629H230.665C244.485 78.9629 254.876 88.8214 254.876 101.97C254.876 111.638 249.131 119.303 240.453 122.593L257 147.698H237.629L223.001 124.19H214.939V147.698H199.309V78.9629H199.297ZM214.927 93.5063V110.744H230.363C235.203 110.744 238.836 107.06 238.836 102.173C238.836 97.2852 235.203 93.5063 230.363 93.5063H214.927Z" fill="#1A1921"/>
<path d="M258.895 122.312C258.895 107.173 270.795 95.7168 286.63 95.7168C302.465 95.7168 314.365 107.077 314.365 122.61C314.365 124.005 314.269 125.698 313.967 126.997H274.633C276.25 132.779 280.993 136.462 287.137 136.462C291.88 136.462 295.706 134.471 297.83 131.682H313.569C309.731 141.946 299.448 148.919 286.739 148.919C270.807 148.919 258.895 137.463 258.895 122.324M274.73 117.341H298.627C297.118 111.762 292.471 108.174 286.618 108.174C280.764 108.174 276.335 111.762 274.717 117.341" fill="#1A1921"/>
<path d="M321.656 96.9089H336.381V101.987C340.315 98.0056 345.662 95.7168 351.914 95.7168C366.132 95.7168 376.729 107.173 376.729 122.312C376.729 137.452 366.144 148.907 351.914 148.907C345.662 148.907 340.315 146.619 336.381 142.637V166.646H321.656V96.9089ZM361.594 122.312C361.594 115.136 356.247 109.76 348.981 109.76C341.716 109.76 336.369 115.136 336.369 122.312C336.369 129.488 341.716 134.865 348.981 134.865C356.247 134.865 361.594 129.488 361.594 122.312Z" fill="#1A1921"/>
<path d="M381.254 122.312C381.254 107.173 393.154 95.7168 408.989 95.7168C424.824 95.7168 436.725 107.173 436.725 122.312C436.725 137.452 424.824 148.907 408.989 148.907C393.154 148.907 381.254 137.452 381.254 122.312ZM421.602 122.312C421.602 115.136 416.255 109.76 408.989 109.76C401.724 109.76 396.377 115.136 396.377 122.312C396.377 129.488 401.724 134.865 408.989 134.865C416.255 134.865 421.602 129.488 421.602 122.312Z" fill="#1A1921"/>
<path d="M445.898 78.9629H488.962V87.522H455.18V109.444H484.834V118.004H455.18V147.698H445.898V78.9629Z" fill="#1A1921"/>
<path d="M505.568 75.9766H496.891V147.704H505.568V75.9766Z" fill="#1A1921"/>
<path d="M515.273 122.312C515.273 107.173 527.077 95.7168 542.707 95.7168C558.337 95.7168 570.044 107.173 570.044 122.312C570.044 137.452 558.24 148.907 542.707 148.907C527.174 148.907 515.273 137.452 515.273 122.312ZM561.065 122.312C561.065 111.858 553.195 103.978 542.707 103.978C532.219 103.978 524.253 111.846 524.253 122.312C524.253 132.779 532.122 140.646 542.707 140.646C553.292 140.646 561.065 132.779 561.065 122.312Z" fill="#1A1921"/>
<path d="M571.684 96.9062H581.46L595.279 137.246L609.509 96.9062H618.476L632.706 137.246L646.526 96.9062H656.097L637.244 147.713H628.168L613.842 106.967L599.624 147.713H590.548L571.684 96.9062Z" fill="#1A1921"/>
</g>
<defs>
<clipPath id="clip0_8209_73428">
<rect width="612.097" height="115" fill="white" transform="translate(44 56)"/>
</clipPath>
</defs>
</svg>
