<svg width="613" height="115" viewBox="0 0 613 115" fill="none" xmlns="http://www.w3.org/2000/svg">
    <g clip-path="url(#clip0_2288_64695)">
        <path d="M99.4273 98.2036H17.0057V16.7964H56.9552L39.9495 0H12.1176C5.43121 0 0 5.36436 0 11.9685V103.032C0 109.648 5.43121 115 12.1176 115H104.303C111.002 115 116.421 109.636 116.421 103.032V75.5421L99.4152 58.7457V98.2036H99.4273Z"
              fill="#1A1921"/>
        <path d="M99.4273 98.2036H17.0057V16.7964H56.9552L39.9495 0H12.1176C5.43121 0 0 5.36436 0 11.9685V103.032C0 109.648 5.43121 115 12.1176 115H104.303C111.002 115 116.421 109.636 116.421 103.032V75.5421L99.4152 58.7457V98.2036H99.4273Z"
              fill="#1A1921"/>
        <path d="M116.435 11.9685V52.7615L99.4413 35.977V16.7964H80.0217L63.0039 0H104.305C111.016 0 116.435 5.36436 116.435 11.9685Z"
              fill="#18A0FB"/>
        <path d="M155.297 22.9629H186.665C200.485 22.9629 210.876 32.8214 210.876 45.97C210.876 55.6378 205.131 63.3029 196.453 66.593L213 91.6982H193.629L179.001 68.1904H170.939V91.6982H155.309V22.9629H155.297ZM170.927 37.5063V54.7438H186.363C191.203 54.7438 194.836 51.0602 194.836 46.1727C194.836 41.2852 191.203 37.5063 186.363 37.5063H170.927Z"
              fill="#1A1921"/>
        <path d="M214.895 66.3116C214.895 51.1722 226.795 39.7163 242.63 39.7163C258.465 39.7163 270.365 51.0768 270.365 66.6096C270.365 68.0044 270.269 69.6971 269.967 70.9965H230.633C232.25 76.7781 236.993 80.4616 243.137 80.4616C247.88 80.4616 251.706 78.4708 253.83 75.6814H269.569C265.731 85.9452 255.448 92.9189 242.739 92.9189C226.807 92.9189 214.895 81.463 214.895 66.3235M230.73 61.3406H254.627C253.118 55.7617 248.471 52.1735 242.618 52.1735C236.764 52.1735 232.335 55.7617 230.717 61.3406"
              fill="#1A1921"/>
        <path d="M277.656 40.9084H292.381V45.9866C296.315 42.0051 301.662 39.7163 307.914 39.7163C322.132 39.7163 332.729 51.1722 332.729 66.3116C332.729 81.451 322.144 92.9069 307.914 92.9069C301.662 92.9069 296.315 90.6181 292.381 86.6366V110.645H277.656V40.9084ZM317.594 66.3116C317.594 59.1353 312.247 53.759 304.981 53.759C297.716 53.759 292.369 59.1353 292.369 66.3116C292.369 73.4879 297.716 78.8642 304.981 78.8642C312.247 78.8642 317.594 73.4879 317.594 66.3116Z"
              fill="#1A1921"/>
        <path d="M337.254 66.3116C337.254 51.1722 349.154 39.7163 364.989 39.7163C380.824 39.7163 392.725 51.1722 392.725 66.3116C392.725 81.451 380.824 92.9069 364.989 92.9069C349.154 92.9069 337.254 81.451 337.254 66.3116ZM377.602 66.3116C377.602 59.1353 372.255 53.759 364.989 53.759C357.724 53.759 352.377 59.1353 352.377 66.3116C352.377 73.4879 357.724 78.8642 364.989 78.8642C372.255 78.8642 377.602 73.4879 377.602 66.3116Z"
              fill="#1A1921"/>
        <path d="M401.898 22.9629H444.962V31.522H411.18V53.4444H440.834V62.0035H411.18V91.6982H401.898V22.9629Z"
              fill="#1A1921"/>
        <path d="M461.568 19.9771H452.891V91.7045H461.568V19.9771Z" fill="#1A1921"/>
        <path d="M471.273 66.3116C471.273 51.1722 483.077 39.7163 498.707 39.7163C514.337 39.7163 526.044 51.1722 526.044 66.3116C526.044 81.451 514.24 92.9069 498.707 92.9069C483.174 92.9069 471.273 81.451 471.273 66.3116ZM517.065 66.3116C517.065 55.8571 509.195 47.9774 498.707 47.9774C488.219 47.9774 480.253 55.8452 480.253 66.3116C480.253 76.7781 488.122 84.6458 498.707 84.6458C509.292 84.6458 517.065 76.7781 517.065 66.3116Z"
              fill="#1A1921"/>
        <path d="M527.684 40.9053H537.46L551.279 81.2453L565.509 40.9053H574.476L588.706 81.2453L602.526 40.9053H612.097L593.244 91.7117H584.168L569.842 50.9664L555.624 91.7117H546.548L527.684 40.9053Z"
              fill="#1A1921"/>
    </g>
    <defs>
        <clipPath id="clip0_2288_64695">
            <rect width="612.097" height="115" fill="white"/>
        </clipPath>
    </defs>
</svg>
