<?xml version="1.0" encoding="UTF-8" standalone="no"?>
<svg
   id="Layer_1"
   viewbox="0,0,620.2,124.6"
   width="700.20001"
   height="204.60001"
   version="1.1"
   sodipodi:docname="signpath.svg"
   inkscape:version="1.4.2 (ebf0e940d0, 2025-05-08)"
   xmlns:inkscape="http://www.inkscape.org/namespaces/inkscape"
   xmlns:sodipodi="http://sodipodi.sourceforge.net/DTD/sodipodi-0.dtd"
   xmlns="http://www.w3.org/2000/svg"
   xmlns:svg="http://www.w3.org/2000/svg"
   xmlns:rdf="http://www.w3.org/1999/02/22-rdf-syntax-ns#"
   xmlns:cc="http://creativecommons.org/ns#"
   xmlns:dc="http://purl.org/dc/elements/1.1/">
  <defs
     id="defs1" />
  <sodipodi:namedview
     id="namedview1"
     pagecolor="#ffffff"
     bordercolor="#000000"
     borderopacity="0.25"
     inkscape:showpageshadow="2"
     inkscape:pageopacity="0.0"
     inkscape:pagecheckerboard="true"
     inkscape:deskcolor="#d1d1d1"
     inkscape:zoom="1.2450187"
     inkscape:cx="84.336084"
     inkscape:cy="87.950487"
     inkscape:window-width="1920"
     inkscape:window-height="1008"
     inkscape:window-x="0"
     inkscape:window-y="0"
     inkscape:window-maximized="1"
     inkscape:current-layer="Layer_1" />
  <title
     id="title1">SignPath GmbH</title>
  <rect
     style="fill:#ffffff;fill-opacity:1;stroke:#000000;stroke-width:0"
     id="rect1"
     height="204.60001"
     x="0"
     y="0"
     width="700.20001"
     inkscape:label="background"
     ry="36.632694" />
  <g
     id="g3705"
     transform="translate(12.900006,17.200003)"
     inkscape:label="logo">
    <g
       id="g3703">
      <path
         id="path3687"
         fill="#111111"
         d="m 208.4,104 c 7.3,5.8 16,9.2 25.3,9.2 9.1,0 15.5,-3.2 15.5,-10.4 0,-6.2 -4,-8.7 -11.2,-11.4 l -11.6,-4.2 c -10.6,-3.9 -18.7,-9.6 -18.7,-22.7 0,-14 12.2,-21.7 26.9,-21.7 9,0 17.1,2.3 23.5,6.5 v 13.9 c -6.6,-5.1 -13.9,-8.6 -23.2,-8.6 -8.1,0 -14,3.1 -14,9.6 0,5.8 3.8,8.2 10.4,10.5 l 12.9,4.7 c 12.5,4.5 18.2,11.6 18.2,23.1 0,14.5 -12.3,22.6 -28.6,22.6 -10.6,0 -19.7,-3.1 -25.3,-7 z" />
      <path
         id="path3689"
         fill="#111111"
         d="m 280.5,56.7 c -4.3,0 -8.1,-3.5 -8.1,-7.9 0,-4.4 3.8,-7.9 8.1,-7.9 4.3,0 8.1,3.5 8.1,7.9 0,4.4 -3.8,7.9 -8.1,7.9 z m 6.5,67.2 H 274 V 66.2 h 13 z" />
      <path
         id="path3691"
         fill="#111111"
         d="m 339.1,118.2 c -2.6,3.1 -8.1,6 -14.5,6 -17,0 -26.6,-14.2 -26.6,-29.6 0,-15.4 9.6,-29.6 26.6,-29.6 6.5,0 11.9,2.9 14.5,6 v -4.7 h 13 v 52.9 c 0,21 -16,28.2 -29.6,28.2 -7.7,0 -14.5,-1.9 -19.2,-4.9 v -13.8 c 6,5.3 11.9,7.3 19.2,7.3 9.2,0 16.6,-5.5 16.6,-15.8 z m 0,-35 c -2.2,-3.9 -6.9,-6.9 -12.3,-6.9 -10,0 -15.7,7.7 -15.7,18.2 0,10.5 5.7,18.2 15.7,18.2 5.5,0 10.1,-3 12.3,-6.9 z" />
      <path
         id="path3693"
         fill="#111111"
         d="m 367,66.2 h 13 v 5.5 c 3.1,-3.6 8.8,-6.8 15.6,-6.8 13.1,0 20.4,8.7 20.4,21.4 v 37.5 H 403 V 88.6 c 0,-7.1 -3.5,-11.8 -10.9,-11.8 -5.6,0 -10.6,3.5 -12.1,9.2 v 37.9 h -13 z" />
      <path
         id="path3695"
         fill="#111111"
         d="m 445,94.1 v 29.7 H 431.5 V 44.1 h 30.8 c 16.5,0 27.3,8.6 27.3,25.1 0,16.2 -10.8,24.9 -27.3,24.9 z m 17.1,-38.3 h -17 v 26.6 h 17 c 9.4,0 14.2,-5.6 14.2,-13.2 -0.1,-7.9 -4.9,-13.4 -14.2,-13.4 z" />
      <path
         id="path3697"
         fill="#111111"
         d="m 530.1,87 c 0,-6.5 -5.2,-10.3 -13.2,-10.3 -6.2,0 -11.3,1.9 -16,5.1 V 69.9 c 3.8,-2.7 11,-4.9 18.3,-4.9 14.9,0 23.4,8.1 23.4,21.2 V 124 h -12.5 v -3.2 c -1.9,1.9 -7.7,4.3 -14.2,4.3 -11.8,0 -21.6,-7 -21.6,-18.8 0,-10.9 9.7,-18.6 22.5,-18.6 5.2,0 10.9,1.8 13.2,3.5 z m 0,16.8 c -1.4,-3.6 -6.5,-5.8 -11.7,-5.8 -5.8,0 -11.9,2.5 -11.9,8.2 0,5.8 6.1,8.3 11.9,8.3 5.2,0 10.3,-2.2 11.7,-5.8 z" />
      <path
         id="path3699"
         fill="#111111"
         d="m 575.8,123.9 h -13 V 77 H 551.1 V 66.2 h 11.7 V 50.8 h 13 v 15.5 h 13 V 77 h -13 z" />
      <path
         id="path3701"
         fill="#111111"
         d="m 598.3,39.5 h 13 v 32.2 c 3.1,-3.6 8.8,-6.8 15.6,-6.8 13.1,0 20.4,8.7 20.4,21.4 v 37.5 h -13 V 88.6 c 0,-7.1 -3.5,-11.8 -10.9,-11.8 -5.6,0 -10.7,3.5 -12.1,9.2 v 37.9 h -13 z" />
    </g>
    <path
       id="path3682"
       fill="#22ccff"
       d="M 106.3,0 H 35.5 L 0,61.4 35.4,122.8 h 70.9 l 35.4,-61.4 z m 1.7,68.6 c -0.7,1.6 -2.3,2.6 -4.1,2.6 H 67.1 c -2.5,0 -4.5,-2 -4.5,-4.5 0,-2.5 2,-4.5 4.5,-4.5 H 93.9 L 83.4,50.3 a 4.43,4.43 0 0 1 0,-5.9 L 93.9,32.5 H 49.6 v 71.2 c 0,2.5 -2,4.5 -4.5,4.5 -2.5,0 -4.5,-2 -4.5,-4.5 V 18.9 c 0,-2.5 2,-4.5 4.5,-4.5 2.5,0 4.5,2 4.5,4.5 v 4.6 h 54.3 c 1.8,0 3.4,1 4.1,2.6 0.7,1.6 0.4,3.5 -0.7,4.8 l -14.4,16.4 14.4,16.4 c 1.1,1.4 1.4,3.3 0.7,4.9 z"
       transform="translate(27.1,22.8)" />
  </g>
  <metadata
     id="metadata1">
    <rdf:RDF>
      <cc:Work
         rdf:about="">
        <dc:title>SignPath GmbH</dc:title>
      </cc:Work>
    </rdf:RDF>
  </metadata>
</svg>
